<svg width="14" height="15" viewBox="0 0 14 15" fill="none" xmlns="http://www.w3.org/2000/svg">
<path d="M7.58315 1.66666L7.59365 1.66724L7.60299 1.66782L7.6514 1.67074L7.65782 1.67191H7.66424L7.6864 1.67716L7.71674 1.68182L7.72607 1.68532L7.73249 1.68591L7.7494 1.69232L7.77974 1.70049L7.79082 1.70574L7.79957 1.70807L7.8159 1.71624L7.83924 1.72616L7.85149 1.73316L7.86432 1.73899L7.87774 1.74774L7.89582 1.75766L7.91565 1.77166L7.92615 1.77807L7.93374 1.78507L7.94774 1.79499L7.9699 1.81482L7.98274 1.82474L7.9874 1.83057L7.99557 1.83757L8.01657 1.86149L8.03174 1.87724L8.03524 1.88249C8.10524 1.96824 8.14957 2.07032 8.1624 2.18174L8.16299 2.18874L8.16415 2.21266L8.16649 2.24999V5.74999H11.0832C11.1854 5.74996 11.2858 5.77681 11.3744 5.82784C11.463 5.87886 11.5367 5.95227 11.5879 6.04072C11.6392 6.12917 11.6664 6.22954 11.6666 6.33177C11.6669 6.43401 11.6403 6.53452 11.5895 6.62324L11.5545 6.67632L6.88782 13.093C6.55649 13.5497 5.83315 13.3147 5.83315 12.75V9.24999H2.91649C2.81425 9.25002 2.7138 9.22317 2.62521 9.17215C2.53661 9.12112 2.46298 9.04771 2.4117 8.95926C2.36042 8.87082 2.33328 8.77044 2.33301 8.66821C2.33274 8.56597 2.35934 8.46546 2.41015 8.37674L2.44515 8.32366L7.11182 1.90699L7.11765 1.89941L7.12815 1.88541L7.1474 1.86324L7.1579 1.85041L7.16315 1.84574L7.17074 1.83757L7.19407 1.81657L7.2104 1.80141L7.21507 1.79791C7.28344 1.74195 7.36362 1.70226 7.44957 1.68182L7.45599 1.68124L7.47174 1.67832L7.5149 1.67074L7.52132 1.67016L7.54524 1.66899L7.58315 1.66666Z" fill="white"/>
</svg>
