<svg width="101" height="122" viewBox="0 0 101 122" fill="none" xmlns="http://www.w3.org/2000/svg">
<path d="M84.6462 1.64517C75.1417 4.70252 47.9262 13.1121 49.4259 28.2907C50.05 34.6066 54.4838 42.9231 60.267 46.1958C72.6862 53.2238 89.4821 38.9385 72.568 30.6379C63.0823 25.9828 51.4808 32.5973 43.3301 37.3944C31.3154 44.4655 26.7236 55.5081 23.1927 68.3443C21.3995 74.8631 19.9628 106.791 21.6601 105.606" stroke="#4A3500" stroke-width="2" stroke-linecap="round"/>
<path d="M19.5886 117.274C21.2922 115.993 34.0185 105.768 32.6291 107.219C30.8105 109.118 28.7381 110.889 27.167 113.003C25.3083 115.503 22.8481 117.495 21.279 120.182C19.9021 122.539 14.6111 109.187 14.2447 106.697" stroke="#4A3500" stroke-width="2" stroke-linecap="round"/>
</svg>
